<svg width="64" height="64" viewBox="0 0 64 64" fill="none" xmlns="http://www.w3.org/2000/svg">
<rect width="64" height="64" rx="8" fill="#1EBD53" fill-opacity="0.2"/>
<path opacity="0.2" d="M31.9988 35.75C26.7328 35.7583 21.5583 34.3739 17 31.7373V44.5C17 44.6642 17.0323 44.8267 17.0951 44.9784C17.158 45.1301 17.25 45.2679 17.3661 45.3839C17.4822 45.5 17.62 45.5921 17.7716 45.6549C17.9233 45.7177 18.0858 45.75 18.25 45.75H45.75C45.9142 45.75 46.0767 45.7177 46.2284 45.6549C46.38 45.5921 46.5178 45.5 46.6339 45.3839C46.75 45.2679 46.842 45.1301 46.9049 44.9784C46.9677 44.8267 47 44.6642 47 44.5V31.7358C42.4411 34.3734 37.2657 35.7583 31.9988 35.75V35.75Z" fill="#1EBD53"/>
<path d="M45.75 23.25H18.25C17.5596 23.25 17 23.8096 17 24.5V44.5C17 45.1904 17.5596 45.75 18.25 45.75H45.75C46.4404 45.75 47 45.1904 47 44.5V24.5C47 23.8096 46.4404 23.25 45.75 23.25Z" stroke="#1EBD53" stroke-width="2.5" stroke-linecap="round" stroke-linejoin="round"/>
<path d="M38.25 23.25V20.75C38.25 20.087 37.9866 19.4511 37.5178 18.9822C37.0489 18.5134 36.413 18.25 35.75 18.25H28.25C27.587 18.25 26.9511 18.5134 26.4822 18.9822C26.0134 19.4511 25.75 20.087 25.75 20.75V23.25" stroke="#1EBD53" stroke-width="2.5" stroke-linecap="round" stroke-linejoin="round"/>
<path d="M47.0002 31.7358C42.4413 34.3734 37.2659 35.7583 31.999 35.75C26.7329 35.7583 21.5584 34.3739 17 31.7372" stroke="#1EBD53" stroke-width="2.5" stroke-linecap="round" stroke-linejoin="round"/>
<path d="M30.125 30.75H33.875" stroke="#1EBD53" stroke-width="2.5" stroke-linecap="round" stroke-linejoin="round"/>
</svg>
