<svg width="64" height="64" viewBox="0 0 64 64" fill="none" xmlns="http://www.w3.org/2000/svg">
<rect width="64" height="64" rx="8" fill="#145AFF" fill-opacity="0.2"/>
<path opacity="0.2" d="M32 17C28.9657 17 26.0028 17.9203 23.5024 19.6392C21.002 21.3582 19.0816 23.7951 17.995 26.6281C16.9083 29.4611 16.7063 32.5571 17.4158 35.5073C18.1252 38.4574 19.7127 41.1231 21.9686 43.1523V43.1522C22.9097 41.3006 24.3451 39.7457 26.1157 38.6598C27.8863 37.5739 29.923 36.9994 32 37C30.7639 37 29.5555 36.6334 28.5277 35.9467C27.4999 35.2599 26.6988 34.2838 26.2258 33.1418C25.7527 31.9997 25.6289 30.7431 25.8701 29.5307C26.1113 28.3183 26.7065 27.2047 27.5806 26.3306C28.4547 25.4565 29.5683 24.8612 30.7807 24.6201C31.9931 24.3789 33.2497 24.5027 34.3918 24.9758C35.5338 25.4488 36.5099 26.2499 37.1967 27.2777C37.8834 28.3055 38.25 29.5139 38.25 30.75C38.25 32.4076 37.5915 33.9973 36.4194 35.1694C35.2473 36.3415 33.6576 37 32 37C34.0771 36.9994 36.1137 37.5739 37.8843 38.6598C39.6549 39.7457 41.0903 41.3006 42.0314 43.1522C44.2873 41.123 45.8748 38.4573 46.5842 35.5071C47.2937 32.557 47.0917 29.461 46.005 26.628C44.9184 23.795 42.998 21.3581 40.4976 19.6392C37.9972 17.9202 35.0343 17 32 17V17Z" fill="#145AFF"/>
<path d="M32 47C40.2843 47 47 40.2843 47 32C47 23.7157 40.2843 17 32 17C23.7157 17 17 23.7157 17 32C17 40.2843 23.7157 47 32 47Z" stroke="#145AFF" stroke-width="2.5" stroke-miterlimit="10"/>
<path d="M32 37C35.4518 37 38.25 34.2018 38.25 30.75C38.25 27.2982 35.4518 24.5 32 24.5C28.5482 24.5 25.75 27.2982 25.75 30.75C25.75 34.2018 28.5482 37 32 37Z" stroke="#145AFF" stroke-width="2.5" stroke-miterlimit="10"/>
<path d="M21.9688 43.1522C22.9103 41.301 24.3458 39.7464 26.1163 38.6606C27.8868 37.5747 29.9232 37 32.0001 37C34.0771 37 36.1135 37.5747 37.884 38.6605C39.6545 39.7464 41.0899 41.3009 42.0315 43.1522" stroke="#145AFF" stroke-width="2.5" stroke-linecap="round" stroke-linejoin="round"/>
</svg>
