<?xml version="1.0" encoding="UTF-8"?>
<svg xmlns="http://www.w3.org/2000/svg" xmlns:xlink="http://www.w3.org/1999/xlink" viewBox="0 0 64 64" width="64px" height="64px">
<g id="surface27726706">
<path style=" stroke:none;fill-rule:nonzero;fill:rgb(100%,96.078432%,85.490197%);fill-opacity:1;" d="M 6.398438 64 C 2.867188 64 0 61.132812 0 57.601562 L 0 6.398438 C 0 2.867188 2.867188 0 6.398438 0 L 57.601562 0 C 61.132812 0 64 2.867188 64 6.398438 L 64 57.601562 C 64 61.132812 61.132812 64 57.601562 64 Z M 6.398438 64 "/>
<path style=" stroke:none;fill-rule:nonzero;fill:rgb(99.215686%,79.607844%,23.921569%);fill-opacity:1;" d="M 51.34375 13.289062 C 50.859375 13.3125 50.382812 13.445312 49.957031 13.617188 C 49.535156 13.789062 47.101562 14.824219 43.511719 16.363281 C 39.917969 17.898438 35.25 19.898438 30.621094 21.878906 C 21.363281 25.847656 12.265625 29.75 12.265625 29.75 L 12.332031 29.722656 C 12.332031 29.722656 11.78125 29.90625 11.222656 30.296875 C 10.945312 30.488281 10.648438 30.738281 10.402344 31.105469 C 10.15625 31.46875 9.976562 31.988281 10.042969 32.535156 C 10.28125 34.457031 12.273438 35 12.273438 35 L 12.28125 35.003906 L 21.171875 38.046875 C 21.398438 38.804688 23.867188 47.046875 24.410156 48.792969 C 24.710938 49.757812 24.992188 50.3125 25.285156 50.691406 C 25.429688 50.882812 25.582031 51.03125 25.753906 51.136719 C 25.820312 51.179688 25.890625 51.210938 25.960938 51.242188 C 25.964844 51.242188 25.964844 51.242188 25.964844 51.242188 C 25.976562 51.246094 25.984375 51.246094 25.992188 51.25 L 25.96875 51.242188 C 25.984375 51.25 26 51.261719 26.015625 51.265625 C 26.046875 51.277344 26.066406 51.277344 26.109375 51.285156 C 27.125 51.640625 27.96875 50.980469 27.96875 50.980469 L 28.003906 50.953125 L 33.464844 45.890625 L 42.328125 52.800781 L 42.4375 52.851562 C 43.988281 53.539062 45.390625 53.15625 46.167969 52.523438 C 46.945312 51.890625 47.25 51.074219 47.25 51.074219 L 47.285156 50.988281 L 53.796875 17.050781 C 53.960938 16.289062 53.984375 15.632812 53.828125 15.042969 C 53.671875 14.449219 53.289062 13.933594 52.8125 13.648438 C 52.332031 13.359375 51.832031 13.269531 51.34375 13.289062 Z M 51.398438 15.320312 C 51.59375 15.3125 51.742188 15.332031 51.785156 15.359375 C 51.832031 15.386719 51.855469 15.386719 51.898438 15.550781 C 51.941406 15.71875 51.964844 16.070312 51.84375 16.621094 L 51.839844 16.632812 L 45.367188 50.378906 C 45.351562 50.410156 45.214844 50.722656 44.910156 50.972656 C 44.59375 51.230469 44.246094 51.429688 43.316406 51.039062 L 33.625 43.484375 L 33.351562 43.269531 L 33.347656 43.273438 L 30.449219 41.101562 L 46.734375 21.9375 C 46.992188 21.640625 47.046875 21.214844 46.875 20.859375 C 46.707031 20.503906 46.34375 20.28125 45.949219 20.292969 C 45.761719 20.296875 45.578125 20.355469 45.421875 20.460938 L 21.855469 36.171875 L 12.953125 33.125 C 12.953125 33.125 12.066406 32.632812 12.027344 32.289062 C 12.023438 32.269531 12.011719 32.285156 12.058594 32.21875 C 12.105469 32.148438 12.21875 32.035156 12.367188 31.933594 C 12.65625 31.730469 12.984375 31.609375 12.984375 31.609375 L 13.019531 31.597656 L 13.050781 31.585938 C 13.050781 31.585938 22.148438 27.683594 31.40625 23.714844 C 36.035156 21.734375 40.703125 19.734375 44.296875 18.199219 C 47.886719 16.664062 50.480469 15.558594 50.699219 15.46875 C 50.949219 15.371094 51.199219 15.328125 51.398438 15.320312 Z M 40.597656 26.078125 L 28.246094 40.609375 L 28.238281 40.613281 C 28.222656 40.636719 28.203125 40.660156 28.183594 40.6875 C 28.164062 40.714844 28.148438 40.742188 28.128906 40.769531 C 28.0625 40.886719 28.015625 41.019531 28 41.15625 C 28 41.15625 28 41.160156 28 41.164062 L 26.390625 48.398438 C 26.363281 48.320312 26.347656 48.289062 26.316406 48.199219 L 26.316406 48.195312 C 25.804688 46.554688 23.476562 38.78125 23.152344 37.707031 Z M 29.640625 42.988281 L 31.859375 44.65625 L 28.597656 47.679688 Z M 29.640625 42.988281 "/>
</g>
</svg>
