<?xml version="1.0" encoding="UTF-8"?>
<svg xmlns="http://www.w3.org/2000/svg" xmlns:xlink="http://www.w3.org/1999/xlink" viewBox="0 0 64 64" width="64px" height="64px">
<g id="surface27786612">
<path style=" stroke:none;fill-rule:nonzero;fill:rgb(99.607843%,89.019608%,85.882354%);fill-opacity:1;" d="M 6.398438 64 C 2.867188 64 0 61.132812 0 57.601562 L 0 6.398438 C 0 2.867188 2.867188 0 6.398438 0 L 57.601562 0 C 61.132812 0 64 2.867188 64 6.398438 L 64 57.601562 C 64 61.132812 61.132812 64 57.601562 64 Z M 6.398438 64 "/>
<path style=" stroke:none;fill-rule:evenodd;fill:rgb(98.039216%,46.666667%,27.843139%);fill-opacity:1;" d="M 20.078125 11.785156 L 23.09375 20.828125 L 23.09375 26.855469 L 25.101562 26.855469 L 25.101562 20.828125 L 28.117188 11.785156 L 26.105469 11.785156 L 24.097656 17.8125 L 22.089844 11.785156 Z M 31.132812 15.804688 C 30.058594 15.804688 29.535156 15.972656 28.878906 16.511719 C 28.25 17.039062 28.078125 17.449219 28.117188 18.816406 L 28.117188 23.84375 C 28.117188 24.84375 28.28125 25.503906 28.886719 26.085938 C 29.515625 26.671875 30.105469 26.855469 31.132812 26.855469 C 32.203125 26.855469 32.789062 26.671875 33.390625 26.085938 C 34.019531 25.527344 34.144531 24.84375 34.144531 23.84375 L 34.144531 18.816406 C 34.144531 17.929688 33.988281 17.089844 33.378906 16.53125 C 32.753906 15.953125 32.105469 15.804688 31.132812 15.804688 Z M 36.15625 15.804688 L 36.15625 24.847656 C 36.15625 25.824219 37.140625 26.855469 38.164062 26.855469 C 39.1875 26.855469 39.730469 26.34375 40.175781 25.851562 L 40.175781 26.855469 L 42.183594 26.855469 L 42.183594 15.804688 L 40.175781 15.804688 L 40.175781 23.84375 C 40.164062 24.527344 39.355469 24.847656 39.167969 24.847656 C 38.960938 24.847656 38.164062 24.804688 38.164062 23.84375 L 38.164062 15.804688 Z M 31.132812 17.8125 C 31.433594 17.8125 32.136719 17.808594 32.136719 18.816406 L 32.136719 23.84375 C 32.136719 24.816406 31.457031 24.847656 31.132812 24.847656 C 30.828125 24.847656 30.125 24.835938 30.125 23.84375 L 30.125 18.816406 C 30.125 17.996094 30.5625 17.8125 31.132812 17.8125 Z M 32.59375 28.789062 C 27.527344 28.777344 22.464844 28.789062 17.398438 28.867188 C 16.714844 28.886719 16.03125 28.984375 15.378906 29.195312 C 14.855469 29.371094 14.351562 29.617188 13.898438 29.933594 C 13.359375 30.308594 12.894531 30.785156 12.535156 31.332031 C 12.28125 31.710938 12.074219 32.128906 11.921875 32.558594 C 11.671875 33.253906 11.558594 33.988281 11.539062 34.722656 C 11.488281 38.019531 11.488281 41.316406 11.539062 44.613281 C 11.558594 45.242188 11.640625 45.859375 11.804688 46.46875 C 12.121094 47.617188 12.730469 48.6875 13.617188 49.492188 C 13.875 49.722656 14.148438 49.929688 14.441406 50.113281 C 14.804688 50.335938 15.191406 50.519531 15.597656 50.65625 C 16.175781 50.855469 16.785156 50.953125 17.398438 50.972656 C 27.554688 51.160156 37.722656 51.128906 47.878906 50.972656 C 48.5625 50.953125 49.246094 50.855469 49.898438 50.640625 C 50.421875 50.464844 50.925781 50.222656 51.378906 49.902344 C 51.917969 49.527344 52.382812 49.050781 52.746094 48.507812 C 52.996094 48.125 53.203125 47.710938 53.359375 47.277344 C 53.605469 46.582031 53.71875 45.847656 53.738281 45.113281 C 53.789062 41.679688 53.753906 38.242188 53.738281 34.8125 C 53.726562 34.070312 53.621094 33.328125 53.378906 32.628906 C 53.234375 32.195312 53.03125 31.773438 52.78125 31.390625 C 52.429688 30.839844 51.96875 30.355469 51.4375 29.976562 C 50.96875 29.636719 50.445312 29.375 49.898438 29.195312 C 49.21875 28.976562 48.507812 28.878906 47.792969 28.867188 C 42.730469 28.84375 37.664062 28.800781 32.59375 28.789062 Z M 40.269531 30.8125 C 42.792969 30.816406 45.316406 30.835938 47.835938 30.875 C 48.234375 30.886719 48.636719 30.933594 49.023438 31.03125 C 49.648438 31.195312 50.238281 31.507812 50.6875 31.96875 C 50.84375 32.128906 50.976562 32.296875 51.097656 32.480469 C 51.265625 32.742188 51.398438 33.03125 51.492188 33.328125 C 51.652344 33.792969 51.714844 34.277344 51.730469 34.769531 C 51.78125 38.203125 51.78125 41.636719 51.730469 45.066406 C 51.714844 45.558594 51.652344 46.046875 51.492188 46.507812 C 51.398438 46.808594 51.265625 47.09375 51.097656 47.355469 C 50.976562 47.539062 50.84375 47.710938 50.6875 47.867188 C 50.238281 48.328125 49.648438 48.640625 49.023438 48.804688 C 48.636719 48.902344 48.234375 48.949219 47.835938 48.960938 C 37.730469 49.117188 27.617188 49.023438 17.507812 48.960938 C 17.074219 48.953125 16.652344 48.890625 16.238281 48.753906 C 15.980469 48.664062 15.730469 48.546875 15.496094 48.402344 C 15.308594 48.285156 15.128906 48.152344 14.96875 48.003906 C 14.347656 47.4375 13.941406 46.679688 13.726562 45.878906 C 13.613281 45.453125 13.5625 45.007812 13.546875 44.566406 C 13.496094 41.324219 13.53125 38.078125 13.546875 34.832031 C 13.554688 34.335938 13.617188 33.847656 13.765625 33.375 C 13.859375 33.074219 13.992188 32.785156 14.160156 32.519531 C 14.28125 32.324219 14.425781 32.136719 14.585938 31.96875 C 15.054688 31.492188 15.660156 31.179688 16.300781 31.019531 C 16.71875 30.917969 17.148438 30.878906 17.570312 30.875 C 25.136719 30.875 32.707031 30.789062 40.269531 30.8125 Z M 18.070312 32.886719 L 18.070312 34.894531 L 20.078125 34.894531 L 20.078125 46.953125 L 22.089844 46.953125 L 22.089844 34.894531 L 24.097656 34.894531 L 24.097656 32.886719 Z M 33.140625 32.886719 L 33.140625 46.953125 L 35.148438 46.953125 L 35.148438 45.949219 C 35.539062 46.398438 36.105469 46.964844 37.160156 46.953125 C 37.785156 46.945312 38.265625 46.441406 38.589844 46.046875 C 38.917969 45.648438 39.167969 45.1875 39.167969 44.441406 L 39.167969 38.410156 C 39.167969 37.542969 38.894531 36.957031 38.546875 36.511719 C 38.195312 36.070312 37.6875 35.835938 37.035156 35.835938 C 36.703125 35.835938 36.378906 35.929688 36.058594 36.09375 C 35.726562 36.257812 35.382812 36.542969 35.148438 36.902344 L 35.148438 32.886719 Z M 25.101562 35.898438 L 25.101562 44.941406 C 25.101562 45.570312 25.375 45.878906 25.605469 46.183594 C 25.863281 46.511719 26.417969 46.953125 26.902344 46.953125 C 27.296875 46.953125 27.71875 46.96875 28.136719 46.730469 C 28.554688 46.523438 28.75 46.386719 29.121094 45.949219 L 29.121094 46.953125 L 31.132812 46.953125 L 31.132812 35.898438 L 29.121094 35.898438 L 29.121094 43.9375 C 28.941406 44.171875 28.933594 44.933594 28.117188 44.941406 C 27.382812 44.949219 27.113281 44.167969 27.113281 43.9375 L 27.113281 35.898438 Z M 43.390625 35.898438 C 42.433594 35.898438 41.550781 36.132812 41.082031 36.613281 C 40.496094 37.214844 40.179688 37.890625 40.179688 38.800781 L 40.179688 43.53125 C 40.179688 44.554688 40.457031 45.351562 40.992188 45.929688 C 41.523438 46.511719 42.269531 46.796875 43.222656 46.796875 C 44.269531 46.796875 45.066406 46.535156 45.574219 45.976562 C 46.117188 45.441406 46.203125 44.625 46.203125 43.53125 L 46.203125 42.933594 L 44.195312 42.933594 L 44.195312 43.433594 C 44.195312 44.039062 44.132812 44.507812 43.992188 44.671875 C 43.855469 44.855469 43.597656 44.9375 43.1875 44.941406 C 42.820312 44.945312 42.542969 44.84375 42.402344 44.613281 C 42.257812 44.402344 42.183594 44.042969 42.183594 43.480469 L 42.183594 41.929688 L 46.203125 41.929688 L 46.203125 38.800781 C 46.203125 37.796875 46.039062 37.171875 45.519531 36.636719 C 45.015625 36.101562 44.34375 35.898438 43.390625 35.898438 Z M 36.15625 37.40625 C 36.707031 37.40625 37.160156 37.910156 37.160156 38.914062 L 37.160156 43.960938 C 37.160156 44.515625 36.707031 44.941406 36.15625 44.941406 C 35.601562 44.941406 35.160156 44.730469 35.148438 44.441406 L 35.148438 38.410156 C 35.160156 37.90625 35.601562 37.40625 36.15625 37.40625 Z M 43.1875 37.910156 C 43.742188 37.910156 44.195312 38.296875 44.195312 38.914062 L 44.195312 39.917969 L 42.183594 39.917969 L 42.183594 38.914062 C 42.191406 38.375 42.636719 37.910156 43.1875 37.910156 Z M 43.1875 37.910156 "/>
</g>
</svg>
