<?xml version="1.0" encoding="UTF-8"?>
<svg xmlns="http://www.w3.org/2000/svg" xmlns:xlink="http://www.w3.org/1999/xlink" viewBox="0 0 56 56" width="56px" height="56px">
<g id="surface6930545">
<path style=" stroke:none;fill-rule:nonzero;fill:rgb(100%,96.078432%,85.490197%);fill-opacity:1;" d="M 4.199219 56 C 1.878906 56 0 54.121094 0 51.800781 L 0 4.199219 C 0 1.878906 1.878906 0 4.199219 0 L 51.800781 0 C 54.121094 0 56 1.878906 56 4.199219 L 56 51.800781 C 56 54.121094 54.121094 56 51.800781 56 Z M 4.199219 56 "/>
<path style=" stroke:none;fill-rule:nonzero;fill:rgb(99.215686%,79.607844%,23.921569%);fill-opacity:1;" d="M 28 6.496094 C 19.59375 6.496094 12.769531 13.324219 12.769531 21.726562 C 12.769531 25.253906 13.96875 28.503906 15.972656 31.082031 C 15.976562 31.085938 15.976562 31.085938 15.976562 31.085938 C 17.140625 32.660156 19.523438 35.566406 21.714844 38.777344 C 23.910156 41.992188 25.859375 45.539062 26.160156 47.941406 C 26.160156 47.945312 26.160156 47.949219 26.164062 47.953125 C 26.285156 48.839844 27.054688 49.503906 27.945312 49.503906 C 28.835938 49.503906 29.625 48.835938 29.734375 47.9375 C 30.027344 45.601562 31.894531 42.195312 34.027344 39.070312 C 36.164062 35.941406 38.53125 33.054688 39.78125 31.386719 C 39.773438 31.398438 39.816406 31.339844 39.839844 31.3125 C 41.957031 28.695312 43.230469 25.355469 43.230469 21.726562 C 43.230469 13.324219 36.40625 6.496094 28 6.496094 Z M 28 8.289062 C 28.546875 8.289062 29.0625 8.386719 29.59375 8.449219 L 23.390625 16.023438 L 18.585938 12.140625 C 21.011719 9.761719 24.328125 8.289062 28 8.289062 Z M 31.59375 8.832031 C 35.238281 9.84375 38.230469 12.328125 39.917969 15.628906 L 35.121094 21.496094 C 34.988281 17.65625 31.867188 14.558594 28 14.558594 C 27.535156 14.558594 27.128906 14.742188 26.6875 14.824219 Z M 17.429688 13.507812 L 22.257812 17.410156 L 15.273438 25.949219 C 14.832031 24.621094 14.558594 23.210938 14.558594 21.726562 C 14.558594 18.613281 15.65625 15.78125 17.429688 13.507812 Z M 28 16.351562 C 30.984375 16.351562 33.375 18.742188 33.375 21.726562 C 33.375 24.710938 30.984375 27.105469 28 27.105469 C 25.015625 27.105469 22.625 24.710938 22.625 21.726562 C 22.625 18.742188 25.015625 16.351562 28 16.351562 Z M 40.699219 17.503906 C 41.144531 18.839844 41.441406 20.242188 41.441406 21.726562 C 41.441406 24.941406 40.3125 27.882812 38.441406 30.195312 C 38.421875 30.214844 38.40625 30.238281 38.390625 30.261719 C 38.449219 30.175781 38.417969 30.21875 38.347656 30.3125 C 37.15625 31.902344 34.742188 34.84375 32.546875 38.058594 C 30.351562 41.269531 28.332031 44.722656 27.953125 47.71875 C 27.953125 47.71875 27.953125 47.722656 27.953125 47.722656 C 27.953125 47.71875 27.96875 47.710938 27.945312 47.710938 C 27.941406 47.710938 27.9375 47.714844 27.9375 47.703125 C 27.570312 44.832031 25.671875 41.53125 23.589844 38.417969 Z M 20.875 21.933594 C 20.988281 25.785156 24.121094 28.894531 28 28.894531 C 28.453125 28.894531 28.847656 28.71875 29.277344 28.636719 L 22.53125 36.878906 C 20.515625 34.035156 18.375 31.308594 17.402344 30.003906 C 17.398438 29.996094 17.394531 29.992188 17.390625 29.984375 C 16.859375 29.304688 16.542969 28.484375 16.148438 27.710938 Z M 20.875 21.933594 "/>
</g>
</svg>
