<?xml version="1.0" encoding="UTF-8"?>
<svg xmlns="http://www.w3.org/2000/svg" xmlns:xlink="http://www.w3.org/1999/xlink" viewBox="0 0 56 56" width="56px" height="56px">
<g id="surface6918289">
<path style=" stroke:none;fill-rule:nonzero;fill:rgb(81.960785%,87.450981%,100%);fill-opacity:1;" d="M 4.199219 56 C 1.878906 56 0 54.121094 0 51.800781 L 0 4.199219 C 0 1.878906 1.878906 0 4.199219 0 L 51.800781 0 C 54.121094 0 56 1.878906 56 4.199219 L 56 51.800781 C 56 54.121094 54.121094 56 51.800781 56 Z M 4.199219 56 "/>
<path style=" stroke:none;fill-rule:nonzero;fill:rgb(7.450981%,35.294119%,100%);fill-opacity:1;" d="M 10.078125 9.183594 C 9.585938 9.183594 9.183594 9.585938 9.183594 10.078125 L 9.183594 45.921875 C 9.183594 46.414062 9.585938 46.816406 10.078125 46.816406 L 45.921875 46.816406 C 46.414062 46.816406 46.816406 46.414062 46.816406 45.921875 L 46.816406 10.078125 C 46.816406 9.585938 46.414062 9.183594 45.921875 9.183594 Z M 10.976562 10.976562 L 45.023438 10.976562 L 45.023438 45.023438 L 10.976562 45.023438 Z M 17.085938 13.664062 C 14.714844 13.664062 12.769531 15.59375 12.769531 17.953125 C 12.769531 22.605469 17.941406 24.824219 19.367188 26.003906 L 19.9375 26.472656 L 20.507812 26.003906 C 21.929688 24.824219 27.105469 22.605469 27.105469 17.953125 C 27.105469 15.59375 25.15625 13.664062 22.785156 13.664062 C 21.65625 13.664062 20.707031 14.191406 19.9375 14.902344 C 19.164062 14.191406 18.214844 13.664062 17.085938 13.664062 Z M 28.894531 13.664062 L 28.894531 15.457031 L 43.230469 15.457031 L 43.230469 13.664062 Z M 17.085938 15.457031 C 17.972656 15.457031 18.742188 15.90625 19.191406 16.578125 L 19.9375 17.691406 L 20.679688 16.578125 C 21.132812 15.90625 21.898438 15.457031 22.785156 15.457031 C 24.195312 15.457031 25.3125 16.570312 25.3125 17.953125 C 25.3125 20.976562 22.023438 22.65625 19.9375 24.203125 C 17.847656 22.65625 14.558594 20.976562 14.558594 17.953125 C 14.558594 16.570312 15.675781 15.457031 17.085938 15.457031 Z M 28.894531 19.039062 L 28.894531 20.832031 L 43.230469 20.832031 L 43.230469 19.039062 Z M 28.894531 24.414062 L 28.894531 26.207031 L 43.230469 26.207031 L 43.230469 24.414062 Z M 12.769531 29.792969 L 12.769531 31.585938 L 27.105469 31.585938 L 27.105469 29.792969 Z M 28.894531 29.792969 L 28.894531 31.585938 L 43.230469 31.585938 L 43.230469 29.792969 Z M 12.769531 35.167969 L 12.769531 36.960938 L 27.105469 36.960938 L 27.105469 35.167969 Z M 28.894531 35.167969 L 28.894531 36.960938 L 43.230469 36.960938 L 43.230469 35.167969 Z M 12.769531 40.542969 L 12.769531 42.335938 L 27.105469 42.335938 L 27.105469 40.542969 Z M 28.894531 40.542969 L 28.894531 42.335938 L 43.230469 42.335938 L 43.230469 40.542969 Z M 28.894531 40.542969 "/>
</g>
</svg>
