<?xml version="1.0" encoding="UTF-8"?>
<svg xmlns="http://www.w3.org/2000/svg" xmlns:xlink="http://www.w3.org/1999/xlink" viewBox="0 0 56 56" width="56px" height="56px">
<g id="surface7030775">
<path style=" stroke:none;fill-rule:nonzero;fill:rgb(99.607843%,89.019608%,85.882354%);fill-opacity:1;" d="M 4.199219 56 C 1.878906 56 0 54.121094 0 51.800781 L 0 4.199219 C 0 1.878906 1.878906 0 4.199219 0 L 51.800781 0 C 54.121094 0 56 1.878906 56 4.199219 L 56 51.800781 C 56 54.121094 54.121094 56 51.800781 56 Z M 4.199219 56 "/>
<path style=" stroke:none;fill-rule:nonzero;fill:rgb(98.039216%,47.058824%,27.843139%);fill-opacity:1;" d="M 16.351562 8.289062 C 11.910156 8.289062 8.289062 11.910156 8.289062 16.351562 L 8.289062 39.648438 C 8.289062 44.089844 11.910156 47.710938 16.351562 47.710938 L 39.648438 47.710938 C 44.089844 47.710938 47.710938 44.089844 47.710938 39.648438 L 47.710938 16.351562 C 47.710938 11.910156 44.089844 8.289062 39.648438 8.289062 Z M 16.351562 10.078125 L 39.648438 10.078125 C 43.121094 10.078125 45.921875 12.878906 45.921875 16.351562 L 45.921875 39.648438 C 45.921875 43.121094 43.121094 45.921875 39.648438 45.921875 L 16.351562 45.921875 C 12.878906 45.921875 10.078125 43.121094 10.078125 39.648438 L 10.078125 16.351562 C 10.078125 12.878906 12.878906 10.078125 16.351562 10.078125 Z M 39.648438 11.871094 C 38.667969 11.871094 37.855469 12.683594 37.855469 13.664062 L 37.855469 16.351562 C 37.855469 17.332031 38.667969 18.144531 39.648438 18.144531 L 42.335938 18.144531 C 43.316406 18.144531 44.128906 17.332031 44.128906 16.351562 L 44.128906 13.664062 C 44.128906 12.683594 43.316406 11.871094 42.335938 11.871094 Z M 39.648438 13.664062 L 42.335938 13.664062 L 42.335938 16.351562 L 39.648438 16.351562 Z M 28 16.351562 C 24.714844 16.351562 21.742188 17.734375 19.621094 19.9375 L 12.769531 19.9375 C 12.273438 19.9375 11.871094 20.335938 11.871094 20.832031 L 11.871094 38.753906 C 11.871094 41.710938 14.289062 44.128906 17.246094 44.128906 L 38.753906 44.128906 C 41.710938 44.128906 44.128906 41.710938 44.128906 38.753906 L 44.128906 20.832031 C 44.128906 20.335938 43.726562 19.9375 43.230469 19.9375 L 36.378906 19.9375 C 34.257812 17.734375 31.285156 16.351562 28 16.351562 Z M 28 18.144531 C 33.441406 18.144531 37.855469 22.558594 37.855469 28 C 37.855469 33.441406 33.441406 37.855469 28 37.855469 C 22.558594 37.855469 18.144531 33.441406 18.144531 28 C 18.144531 22.558594 22.558594 18.144531 28 18.144531 Z M 28 19.9375 C 27.875 19.933594 27.75 19.960938 27.632812 20.011719 C 23.371094 20.214844 19.9375 23.6875 19.9375 28 C 19.9375 32.445312 23.558594 36.0625 28 36.0625 C 32.441406 36.0625 36.0625 32.445312 36.0625 28 C 36.0625 23.6875 32.632812 20.21875 28.371094 20.011719 C 28.253906 19.960938 28.128906 19.933594 28 19.9375 Z M 13.664062 21.726562 L 18.207031 21.726562 C 17.039062 23.542969 16.351562 25.691406 16.351562 28 C 16.351562 34.414062 21.585938 39.648438 28 39.648438 C 34.414062 39.648438 39.648438 34.414062 39.648438 28 C 39.648438 25.691406 38.960938 23.542969 37.792969 21.726562 L 42.335938 21.726562 L 42.335938 38.753906 C 42.335938 40.742188 40.742188 42.335938 38.753906 42.335938 L 17.246094 42.335938 C 15.257812 42.335938 13.664062 40.742188 13.664062 38.753906 Z M 28 21.726562 C 31.472656 21.726562 34.273438 24.523438 34.273438 28 C 34.273438 31.476562 31.472656 34.273438 28 34.273438 C 24.527344 34.273438 21.726562 31.476562 21.726562 28 C 21.726562 24.523438 24.527344 21.726562 28 21.726562 Z M 28 21.726562 "/>
</g>
</svg>
