<?xml version="1.0" encoding="UTF-8"?>
<svg xmlns="http://www.w3.org/2000/svg" xmlns:xlink="http://www.w3.org/1999/xlink" viewBox="0 0 56 56" width="56px" height="56px">
<g id="surface37076708">
<path style=" stroke:none;fill-rule:nonzero;fill:rgb(81.960785%,87.450981%,100%);fill-opacity:1;" d="M 4.199219 56 C 1.878906 56 0 54.121094 0 51.800781 L 0 4.199219 C 0 1.878906 1.878906 0 4.199219 0 L 51.800781 0 C 54.121094 0 56 1.878906 56 4.199219 L 56 51.800781 C 56 54.121094 54.121094 56 51.800781 56 Z M 4.199219 56 "/>
<path style=" stroke:none;fill-rule:nonzero;fill:rgb(7.450981%,35.294119%,100%);fill-opacity:1;" d="M 18.761719 11.199219 C 16.316406 11.199219 14.230469 12.9375 13.851562 15.296875 C 13.839844 15.351562 13.804688 15.398438 13.796875 15.453125 L 13.824219 15.453125 C 13.796875 15.582031 13.761719 15.699219 13.746094 15.820312 C 13.492188 15.996094 13.246094 16.1875 13.039062 16.398438 C 12.050781 17.394531 11.632812 18.648438 11.332031 19.679688 C 11.328125 19.683594 11.335938 19.699219 11.332031 19.703125 C 10.242188 23.054688 8.289062 30.984375 7.839844 32.804688 C 7.316406 33.898438 7 35.105469 7 36.398438 C 7 41.03125 10.769531 44.800781 15.398438 44.800781 C 19.925781 44.800781 23.605469 41.199219 23.773438 36.714844 C 24.726562 37.417969 26.101562 38.078125 28 38.078125 C 29.898438 38.078125 31.273438 37.417969 32.226562 36.714844 C 32.394531 41.199219 36.074219 44.800781 40.601562 44.800781 C 45.230469 44.800781 49 41.03125 49 36.398438 C 49 35.453125 48.847656 34.546875 48.554688 33.695312 C 48.414062 33.144531 45.933594 23.289062 44.851562 19.703125 L 44.851562 19.679688 C 44.511719 18.65625 44.058594 17.402344 43.066406 16.398438 C 42.820312 16.148438 42.542969 15.917969 42.226562 15.714844 C 42.210938 15.625 42.199219 15.542969 42.175781 15.453125 L 42.203125 15.453125 C 42.195312 15.398438 42.160156 15.351562 42.148438 15.296875 C 41.769531 12.9375 39.683594 11.199219 37.238281 11.199219 C 34.449219 11.199219 32.199219 13.449219 32.199219 16.238281 C 32.199219 16.855469 32.300781 17.453125 32.488281 18 C 32.097656 18.453125 31.769531 18.863281 31.542969 19.074219 C 31.449219 19.164062 31.441406 19.160156 31.414062 19.179688 C 30.457031 18.476562 29.304688 18 28.078125 18 C 26.855469 18 25.652344 18.4375 24.71875 19.179688 C 24.6875 19.160156 24.683594 19.164062 24.585938 19.074219 C 24.339844 18.84375 23.96875 18.394531 23.539062 17.894531 C 23.703125 17.375 23.800781 16.820312 23.800781 16.238281 C 23.800781 13.449219 21.550781 11.199219 18.761719 11.199219 Z M 18.761719 12.878906 C 20.671875 12.878906 22.121094 14.328125 22.121094 16.238281 C 22.121094 16.3125 22.097656 16.378906 22.09375 16.449219 C 21.027344 15.535156 19.65625 14.71875 17.839844 14.71875 C 17.027344 14.71875 16.300781 14.796875 15.664062 14.953125 C 16.125 13.734375 17.324219 12.878906 18.761719 12.878906 Z M 37.238281 12.878906 C 38.660156 12.878906 39.839844 13.722656 40.3125 14.925781 C 39.722656 14.792969 39.078125 14.71875 38.34375 14.71875 C 36.460938 14.71875 35.003906 15.59375 33.90625 16.554688 C 33.894531 16.445312 33.878906 16.34375 33.878906 16.238281 C 33.878906 14.328125 35.328125 12.878906 37.238281 12.878906 Z M 17.839844 16.398438 C 19.519531 16.398438 20.675781 17.300781 21.648438 18.3125 C 21.65625 18.738281 21.984375 19.089844 22.410156 19.128906 C 22.765625 19.542969 23.109375 19.953125 23.457031 20.28125 C 23.699219 20.503906 23.941406 20.71875 24.324219 20.832031 C 24.707031 20.949219 25.253906 20.863281 25.585938 20.597656 L 25.609375 20.570312 C 26.171875 20.074219 27.203125 19.679688 28.078125 19.679688 C 28.953125 19.679688 29.875 20.039062 30.574219 20.597656 L 30.574219 20.570312 L 30.597656 20.570312 C 30.921875 20.835938 31.457031 20.949219 31.832031 20.832031 C 32.214844 20.714844 32.4375 20.503906 32.671875 20.28125 C 33.027344 19.949219 33.378906 19.527344 33.75 19.101562 C 34.039062 19.011719 34.265625 18.769531 34.328125 18.472656 C 35.339844 17.390625 36.574219 16.398438 38.34375 16.398438 C 39.449219 16.398438 40.234375 16.566406 40.835938 16.84375 C 40.9375 16.945312 41.066406 17.019531 41.203125 17.054688 C 41.230469 17.0625 41.257812 17.074219 41.28125 17.078125 C 41.507812 17.226562 41.710938 17.402344 41.886719 17.578125 C 42.550781 18.25 42.921875 19.191406 43.25 20.175781 C 43.253906 20.183594 43.246094 20.195312 43.25 20.203125 C 43.898438 22.347656 44.972656 26.417969 45.851562 29.835938 C 44.410156 28.679688 42.585938 28 40.601562 28 C 36.792969 28 33.566406 30.554688 32.542969 34.039062 C 32.480469 34.089844 32.425781 34.152344 32.382812 34.222656 C 32.382812 34.222656 31.300781 36.398438 28 36.398438 C 24.699219 36.398438 23.617188 34.222656 23.617188 34.222656 C 23.574219 34.140625 23.519531 34.074219 23.457031 34.011719 C 22.425781 30.542969 19.199219 28 15.398438 28 C 13.496094 28 11.746094 28.636719 10.332031 29.707031 C 11.203125 26.292969 12.257812 22.285156 12.933594 20.203125 L 12.933594 20.175781 C 13.21875 19.199219 13.554688 18.25 14.21875 17.578125 C 14.882812 16.90625 15.898438 16.398438 17.839844 16.398438 Z M 28 28 C 26.152344 28 24.640625 29.511719 24.640625 31.359375 C 24.640625 33.207031 26.152344 34.71875 28 34.71875 C 29.847656 34.71875 31.359375 33.207031 31.359375 31.359375 C 31.359375 29.511719 29.847656 28 28 28 Z M 15.398438 29.679688 C 19.121094 29.679688 22.121094 32.679688 22.121094 36.398438 C 22.121094 40.121094 19.121094 43.121094 15.398438 43.121094 C 11.679688 43.121094 8.679688 40.121094 8.679688 36.398438 C 8.679688 35.894531 8.734375 35.402344 8.835938 34.929688 C 9.003906 34.800781 9.117188 34.613281 9.152344 34.40625 C 9.152344 34.40625 9.371094 33.5 9.414062 33.328125 C 10.527344 31.160156 12.789062 29.679688 15.398438 29.679688 Z M 28 29.679688 C 28.9375 29.679688 29.679688 30.421875 29.679688 31.359375 C 29.679688 32.296875 28.9375 33.039062 28 33.039062 C 27.0625 33.039062 26.320312 32.296875 26.320312 31.359375 C 26.320312 30.421875 27.0625 29.679688 28 29.679688 Z M 40.601562 29.679688 C 43.527344 29.679688 46 31.539062 46.925781 34.140625 C 46.929688 34.15625 47.003906 34.429688 47.003906 34.429688 C 47.027344 34.515625 47.0625 34.59375 47.109375 34.667969 C 47.257812 35.21875 47.320312 35.800781 47.320312 36.398438 C 47.320312 40.121094 44.320312 43.121094 40.601562 43.121094 C 36.878906 43.121094 33.878906 40.121094 33.878906 36.398438 C 33.878906 32.679688 36.878906 29.679688 40.601562 29.679688 Z M 11.121094 35.535156 C 11.085938 35.539062 11.050781 35.550781 11.015625 35.558594 C 10.625 35.648438 10.351562 36 10.359375 36.398438 C 10.359375 39.191406 12.609375 41.441406 15.398438 41.441406 C 15.703125 41.441406 15.984375 41.285156 16.136719 41.023438 C 16.289062 40.761719 16.289062 40.4375 16.136719 40.175781 C 15.984375 39.914062 15.703125 39.757812 15.398438 39.761719 C 13.488281 39.761719 12.039062 38.3125 12.039062 36.398438 C 12.050781 36.15625 11.953125 35.925781 11.777344 35.761719 C 11.601562 35.59375 11.359375 35.511719 11.121094 35.535156 Z M 37.160156 35.535156 C 37.125 35.539062 37.089844 35.550781 37.054688 35.558594 C 36.664062 35.648438 36.390625 36 36.398438 36.398438 C 36.398438 39.191406 38.648438 41.441406 41.441406 41.441406 C 41.742188 41.441406 42.023438 41.285156 42.179688 41.023438 C 42.328125 40.761719 42.328125 40.4375 42.179688 40.175781 C 42.023438 39.914062 41.742188 39.757812 41.441406 39.761719 C 39.527344 39.761719 38.078125 38.3125 38.078125 36.398438 C 38.089844 36.15625 37.992188 35.925781 37.816406 35.761719 C 37.640625 35.59375 37.402344 35.511719 37.160156 35.535156 Z M 37.160156 35.535156 "/>
</g>
</svg>
