<?xml version="1.0" encoding="UTF-8"?>
<svg xmlns="http://www.w3.org/2000/svg" xmlns:xlink="http://www.w3.org/1999/xlink" viewBox="0 0 56 56" width="56px" height="56px">
<g id="surface6818372">
<path style=" stroke:none;fill-rule:nonzero;fill:rgb(81.176472%,94.901961%,86.666667%);fill-opacity:1;" d="M 4.199219 56 C 1.878906 56 0 54.121094 0 51.800781 L 0 4.199219 C 0 1.878906 1.878906 0 4.199219 0 L 51.800781 0 C 54.121094 0 56 1.878906 56 4.199219 L 56 51.800781 C 56 54.121094 54.121094 56 51.800781 56 Z M 4.199219 56 "/>
<path style=" stroke:none;fill-rule:nonzero;fill:rgb(19.607843%,74.117649%,32.549021%);fill-opacity:1;" d="M 35.53125 5.601562 C 35.039062 5.644531 34.675781 6.085938 34.71875 6.578125 C 34.765625 7.074219 35.207031 7.4375 35.699219 7.390625 L 47.320312 7.390625 L 28.617188 26.125 C 28.351562 26.339844 28.226562 26.6875 28.304688 27.023438 C 28.382812 27.355469 28.644531 27.617188 28.976562 27.695312 C 29.3125 27.773438 29.660156 27.648438 29.875 27.382812 L 48.609375 8.679688 L 48.609375 20.300781 C 48.605469 20.621094 48.773438 20.921875 49.050781 21.085938 C 49.332031 21.25 49.675781 21.25 49.957031 21.085938 C 50.234375 20.921875 50.402344 20.621094 50.398438 20.300781 L 50.398438 5.601562 L 35.699219 5.601562 C 35.671875 5.601562 35.644531 5.601562 35.617188 5.601562 C 35.589844 5.601562 35.558594 5.601562 35.53125 5.601562 Z M 7.390625 14.558594 C 6.921875 14.558594 6.445312 14.722656 6.105469 15.0625 C 5.765625 15.402344 5.601562 15.882812 5.601562 16.351562 L 5.601562 48.609375 C 5.601562 49.078125 5.765625 49.554688 6.105469 49.894531 C 6.445312 50.234375 6.921875 50.398438 7.390625 50.398438 L 39.648438 50.398438 C 40.117188 50.398438 40.597656 50.234375 40.9375 49.894531 C 41.277344 49.554688 41.441406 49.078125 41.441406 48.609375 L 41.441406 21.726562 C 41.445312 21.40625 41.277344 21.105469 40.996094 20.941406 C 40.714844 20.78125 40.371094 20.78125 40.09375 20.941406 C 39.8125 21.105469 39.644531 21.40625 39.648438 21.726562 L 39.648438 48.609375 L 7.390625 48.609375 L 7.390625 16.351562 L 34.273438 16.351562 C 34.59375 16.355469 34.894531 16.1875 35.058594 15.90625 C 35.21875 15.628906 35.21875 15.285156 35.058594 15.003906 C 34.894531 14.722656 34.59375 14.554688 34.273438 14.558594 Z M 7.390625 14.558594 "/>
</g>
</svg>
