<?xml version="1.0" encoding="UTF-8"?>
<svg xmlns="http://www.w3.org/2000/svg" xmlns:xlink="http://www.w3.org/1999/xlink" viewBox="0 0 56 56" width="56px" height="56px">
<g id="surface37512205">
<path style=" stroke:none;fill-rule:nonzero;fill:rgb(100%,96.078432%,85.490197%);fill-opacity:1;" d="M 4.199219 56 C 1.878906 56 0 54.121094 0 51.800781 L 0 4.199219 C 0 1.878906 1.878906 0 4.199219 0 L 51.800781 0 C 54.121094 0 56 1.878906 56 4.199219 L 56 51.800781 C 56 54.121094 54.121094 56 51.800781 56 Z M 4.199219 56 "/>
<path style=" stroke:none;fill-rule:nonzero;fill:rgb(99.215686%,79.607844%,23.921569%);fill-opacity:1;" d="M 28 7.390625 C 16.628906 7.390625 7.390625 16.628906 7.390625 28 C 7.390625 39.371094 16.628906 48.609375 28 48.609375 C 39.371094 48.609375 48.609375 39.371094 48.609375 28 C 48.609375 16.628906 39.371094 7.390625 28 7.390625 Z M 28 9.183594 C 38.402344 9.183594 46.816406 17.597656 46.816406 28 C 46.816406 38.402344 38.402344 46.816406 28 46.816406 C 17.597656 46.816406 9.183594 38.402344 9.183594 28 C 9.183594 17.597656 17.597656 9.183594 28 9.183594 Z M 28 16.351562 C 21.582031 16.351562 16.351562 21.582031 16.351562 28 C 16.351562 34.417969 21.582031 39.648438 28 39.648438 C 31.597656 39.648438 34.824219 38.003906 36.960938 35.429688 L 36.960938 38.304688 C 36.960938 39.046875 37.5625 39.648438 38.304688 39.648438 C 39.046875 39.648438 39.648438 39.046875 39.648438 38.304688 L 39.648438 31.585938 C 39.648438 31.089844 39.246094 30.6875 38.753906 30.6875 L 32.03125 30.6875 C 31.289062 30.6875 30.6875 31.289062 30.6875 32.03125 C 30.6875 32.773438 31.289062 33.375 32.03125 33.375 L 35.152344 33.375 C 33.523438 35.550781 30.9375 36.960938 28 36.960938 C 23.035156 36.960938 19.039062 32.964844 19.039062 28 C 19.039062 23.035156 23.035156 19.039062 28 19.039062 C 31.078125 19.039062 33.769531 20.585938 35.386719 22.9375 C 35.65625 23.335938 36.121094 23.5625 36.601562 23.523438 C 37.082031 23.488281 37.503906 23.195312 37.710938 22.757812 C 37.917969 22.324219 37.875 21.808594 37.601562 21.414062 C 35.503906 18.359375 31.980469 16.351562 28 16.351562 Z M 28 16.351562 "/>
</g>
</svg>
