<svg width="303" height="36" viewBox="0 0 303 36" fill="none" xmlns="http://www.w3.org/2000/svg">
<path d="M286 8H281.288V16.8639H286.088C287.432 16.8639 288.536 16.4639 289.4 15.6639C290.264 14.8319 290.696 13.7759 290.696 12.4959C290.696 11.0559 290.28 9.98386 289.448 9.27986C288.616 8.57586 287.472 8 286 8ZM272.552 33.9999V1.35986H286.28C289.896 1.35986 293.032 2.23986 295.688 3.99986C298.376 5.72786 299.72 8.55986 299.72 12.4959C299.72 14.4799 299.304 16.1919 298.472 17.6319C297.672 19.0719 296.616 20.2399 295.304 21.1359L302.504 33.9999H292.376L287.096 23.7279H281.288V33.9999H272.552Z" fill="#101820"/>
<path d="M198 8H193.178V16.8639H197.978C199.322 16.8639 200.426 16.4639 201.29 15.6639C202.154 14.8319 202.586 13.7759 202.586 12.4959C202.586 11.0559 202.17 9.98386 201.338 9.27986C200.506 8.57586 199.472 8 198 8ZM184.442 33.9999V1.35986H198.17C201.786 1.35986 204.922 2.23986 207.578 3.99986C210.266 5.72786 211.61 8.55986 211.61 12.4959C211.61 14.4799 211.194 16.1919 210.362 17.6319C209.562 19.0719 208.506 20.2399 207.194 21.1359L214.394 33.9999H204.266L198.986 23.7279H193.178V33.9999H184.442Z" fill="#101820"/>
<rect width="8.76" height="1" transform="translate(184.42 8)" fill="white"/>
<path d="M164.902 11.8239L159.382 27.5679H170.661L164.902 11.8239ZM169.413 1.35986L181.52 33.9999H173.014L170.661 27.5679H159.382L157.126 33.9999H148.438L160.678 1.35986H169.413Z" fill="#101820"/>
<path d="M121.349 33.9999V17V1.35986H135.077C138.693 1.35986 141.829 2.33586 144.485 4.28786C147.173 6.23986 148.517 9.18386 148.517 13.1199C148.517 17.0239 147.093 19.9039 144.245 21.7599C141.397 23.5839 138.213 24.4959 134.693 24.4959H130.085V33.9999H121.349ZM134.789 8.22386H121.349V17H133.52C134.864 17 137.381 16.864 138.245 16C139.109 15.136 139.493 14.3999 139.493 13.1199C139.493 11.6799 139.077 10.5119 138.245 9.61586C137.413 8.68786 136.261 8.22386 134.789 8.22386Z" fill="#101820"/>
<path d="M83.2609 11.8239L77.7409 27.5679H89.0209L83.2609 11.8239ZM87.7729 1.35986L100.02 33.9999H91.3729L89.0209 27.5679H77.7409L75.4849 33.9999H66.7969L79.0369 1.35986H87.7729Z" fill="#101820"/>
<path d="M36.52 29C36.5202 25.5 35.0202 6.5 36.5197 2C39.5197 2 44.6237 2 49.5197 2C54.8317 2 58.7489 2.31985 61.4049 5.58385C64.0609 8.84785 65.3889 12.8158 65.3889 17.4878C65.3889 22.5438 63.9809 26.6719 61.1649 29.8719C58.3489 33.0719 54.3969 34 49.4049 34C44.1889 34 39.5198 34 36.5202 34C36.5198 32 36.4772 33.7467 36.52 29ZM36.52 29C36.529 28 36.4152 28.0721 36.435 26.5C37.4706 27.5 46.9409 27 49.4049 27C51.6449 27 53.3729 26.5599 54.5889 24.9279C55.8049 23.2639 56.4129 20.7838 56.4129 17.4878C56.4129 14.7678 55.6769 13.292 54.5889 11.5C53.5329 9.676 38.9517 9.5 36.5197 9.5C36.5197 7.5 36.5197 3 36.5197 2C35.0198 4.5 36.4867 27.6914 36.52 29Z" fill="#101820"/>
<path d="M16.464 11.8239L10.944 27.5679H22.224L16.464 11.8239ZM20.976 1.35986L33.52 33.9999H24.576L22.224 27.5679H10.944L8.688 33.9999H0L12.24 1.35986H20.976Z" fill="#101820"/>
<rect width="8.76" height="1" transform="translate(272.52 8)" fill="white"/>
<rect width="22" height="9" transform="translate(245.52 1)" fill="#101820"/>
<rect width="22" height="9" transform="translate(245.52 13)" fill="#101820"/>
<rect width="22" height="9" transform="translate(245.52 25)" fill="#101820"/>
<path fill-rule="evenodd" clip-rule="evenodd" d="M218.091 19.6875C219.352 20.8951 221.214 21.5466 223.679 21.6419H225.295C225.294 21.6547 225.294 21.6674 225.293 21.6801H234.117C234.649 21.7119 235.674 22.4237 236.066 22.9004C236.389 23.2925 236.604 23.7966 236.604 24.4068V25.9513C236.604 25.9513 236.266 27.4576 235.529 28.0678C235.137 28.5763 234.649 28.678 234.117 28.678H225.311C225.311 28.8252 225.307 29.0306 225.304 29.2653C225.295 29.8515 225.283 30.62 225.311 31.1186C225.33 31.4622 225.327 31.5236 225.321 31.6706C225.317 31.7846 225.311 31.9501 225.311 32.339C225.311 32.6756 225.315 32.9322 225.32 33.1542C225.326 33.5189 225.331 33.7902 225.311 34.1695C225.311 34.3729 225.314 34.5339 225.318 34.6949C225.326 35.0169 225.333 35.339 225.311 36H234.117C236.078 35.9682 237.702 35.3326 238.991 34.0932C240.251 32.8856 241.162 31.5032 241.722 29.946C242.254 28.4206 242.52 26.8316 242.52 25.179C242.52 23.59 242.24 22.0169 241.68 20.4597C241.12 18.9343 240.209 17.5519 238.949 16.3125C237.688 15.1049 235.808 14.7394 233.343 14.6441L231.729 14.6441L222.923 14.3199C222.391 14.2881 221.366 13.5763 220.974 13.0996C220.651 12.7075 220.436 12.2034 220.436 11.5932V10.0487C220.436 10.0487 220.774 8.54237 221.511 7.9322C221.903 7.42373 222.391 7.32203 222.923 7.32203H231.729C231.729 7.17484 231.733 6.96939 231.736 6.7347C231.745 6.14853 231.757 5.37999 231.729 4.88136C231.711 4.53783 231.713 4.47636 231.719 4.32944C231.723 4.2154 231.729 4.04988 231.729 3.66102C231.729 3.32438 231.725 3.0678 231.72 2.84584C231.714 2.48109 231.709 2.20984 231.729 1.83051C231.729 1.62712 231.726 1.4661 231.722 1.30508C231.715 0.983051 231.707 0.661017 231.729 0H222.923C220.962 0.0317797 219.338 0.667373 218.049 1.90678C216.789 3.11441 215.879 4.49682 215.318 6.05403C214.786 7.57945 214.52 9.16843 214.52 10.821C214.52 12.41 214.8 13.9831 215.36 15.5403C215.921 17.0657 216.831 18.4481 218.091 19.6875Z" fill="#101820"/>
</svg>
