<?xml version="1.0" standalone="no"?>
<!DOCTYPE svg PUBLIC "-//W3C//DTD SVG 20010904//EN"
 "http://www.w3.org/TR/2001/REC-SVG-20010904/DTD/svg10.dtd">
<svg version="1.0" xmlns="http://www.w3.org/2000/svg"
 width="900.000000pt" height="900.000000pt" viewBox="0 0 900.000000 900.000000"
 preserveAspectRatio="xMidYMid meet">

<g transform="translate(0.000000,900.000000) scale(0.100000,-0.100000)"
fill="#000000" stroke="none">
<path d="M0 4500 l0 -4500 4500 0 4500 0 0 4500 0 4500 -4500 0 -4500 0 0
-4500z m5310 1491 c27 -16 57 -46 75 -75 l30 -49 3 -890 2 -890 -25 -105 c-66
-275 -258 -509 -513 -624 -242 -110 -550 -105 -784 12 -269 134 -451 380 -502
679 -20 119 -20 173 0 292 66 386 357 685 739 760 95 19 252 16 354 -5 71 -15
114 -31 258 -93 9 -4 13 95 15 434 l3 439 28 42 c30 47 90 90 139 103 53 12
129 0 178 -30z m-2686 -898 c377 -73 672 -386 725 -768 6 -43 11 -244 11 -459
0 -434 -3 -456 -67 -518 -61 -58 -95 -71 -177 -66 -82 4 -144 37 -176 92 l-20
32 -84 -41 c-126 -62 -234 -85 -397 -85 -104 0 -155 5 -220 21 -323 81 -583
338 -670 664 -31 114 -31 345 0 460 55 209 199 412 376 531 207 140 446 186
699 137z m4096 6 c383 -55 699 -378 755 -774 21 -147 21 -811 0 -882 -19 -62
-46 -97 -104 -134 -39 -25 -55 -29 -117 -29 -64 0 -77 3 -120 33 -27 17 -58
46 -69 62 l-20 30 -65 -32 c-136 -68 -209 -85 -386 -90 -151 -5 -167 -3 -260
22 -174 47 -299 121 -425 252 -114 117 -182 235 -231 400 -20 67 -23 100 -23
238 0 139 3 171 24 240 110 377 425 640 804 674 88 8 121 6 237 -10z"/>
<path d="M4412 4639 c-199 -35 -362 -231 -362 -434 0 -130 34 -223 115 -313
248 -276 699 -156 781 208 22 95 7 205 -39 297 -89 179 -291 279 -495 242z"/>
<path d="M2334 4636 c-131 -32 -240 -120 -301 -244 -38 -75 -38 -77 -38 -196
0 -115 2 -124 32 -188 140 -297 523 -358 746 -119 140 150 160 390 46 557 -35
52 -121 130 -171 155 -87 45 -215 59 -314 35z"/>
<path d="M6455 4636 c-181 -44 -324 -214 -342 -406 -19 -214 130 -419 343
-474 81 -21 145 -20 230 2 151 40 262 146 314 302 19 55 21 80 17 160 -4 81
-10 106 -38 165 -92 196 -314 302 -524 251z"/>
</g>
</svg>
