<svg width="820" height="546" viewBox="0 0 820 546" fill="none" xmlns="http://www.w3.org/2000/svg">
<path d="M122.177 387.23C119.142 374.609 110.318 364.333 102.56 353.917C82.645 327.188 67.9621 295.082 68.8732 261.78C69.7843 228.477 89.0613 194.45 120.365 182.935C151.553 171.462 189.455 182.841 217.479 164.987C234.755 153.98 244.157 134.194 258.826 119.9C282.41 96.9225 318.83 90.101 350.894 97.661C382.958 105.221 410.862 125.588 432.736 150.193C443.424 162.215 453.467 175.781 468.14 182.393C487.119 190.943 509.332 185.847 528.879 178.686C548.426 171.525 568.032 162.278 588.848 162.838C611.475 163.451 632.276 175.746 649.209 190.751C662.378 202.42 674.408 217.022 676.672 234.459C679.027 252.596 670.459 270.309 669.019 288.544C667.091 312.96 679.104 337.999 699.359 351.803C707.601 357.417 716.985 361.236 725.055 367.091C750.857 385.806 758.188 423.21 747.875 453.349C737.562 483.487 712.829 506.815 685.384 523.03L126.35 521.889C109.19 523.412 95.7545 502.352 95.5022 485.146C95.2499 467.94 103.968 452.075 111.615 436.657C119.254 421.236 126.2 403.96 122.177 387.23Z" stroke="#74DEC9" stroke-width="4" stroke-miterlimit="10" stroke-dasharray="11.98 11.98"/>
<path d="M695.872 381.63C699.085 368.26 708.431 357.375 716.652 346.343C737.748 318.032 753.303 284.022 752.333 248.742C751.362 213.462 730.946 177.423 697.789 165.225C664.75 153.07 624.602 165.124 594.921 146.213C576.621 134.551 566.662 113.593 551.121 98.4556C526.139 74.1166 487.56 66.8891 453.597 74.9006C419.633 82.9121 390.071 104.483 366.901 130.547C355.579 143.28 344.943 157.651 329.402 164.655C309.298 173.713 285.767 168.312 265.063 160.728C244.357 153.143 223.587 143.347 201.541 143.942C177.572 144.589 155.537 157.613 137.603 173.51C123.656 185.872 110.907 201.338 108.51 219.808C106.015 239.023 115.095 257.783 116.615 277.099C118.655 302.964 105.934 329.487 84.4742 344.107C75.7451 350.057 65.8035 354.099 57.253 360.301C29.9197 380.125 22.1577 419.745 33.0805 451.669C44.0034 483.592 70.2048 508.306 99.2763 525.48L691.446 524.273C709.623 525.883 723.853 503.577 724.123 485.353C724.393 467.128 715.156 450.321 707.057 433.99C698.966 417.652 691.611 399.354 695.872 381.63Z" fill="#EBEBEB"/>
<path d="M117.968 408.72L188.235 272.294L252.935 351.296L349.267 263.197L423.264 335.959L478.105 264.107L591.251 381.728L687.388 223.749" stroke="white" stroke-width="4" stroke-miterlimit="10"/>
<path d="M145.273 271.954L177.656 304.9C178.487 305.747 179.825 305.827 180.754 305.092L265.62 237.766C266.77 236.853 268.469 237.227 269.132 238.533L319.926 338.815C320.616 340.176 322.407 340.512 323.542 339.494L408.402 263.368C409.302 262.56 410.676 262.581 411.552 263.418L459.641 309.341C460.482 310.143 461.786 310.202 462.694 309.474L597.461 201.779C598.379 201.047 599.7 201.114 600.538 201.937L669.782 270.047C670.704 270.953 672.186 270.932 673.08 270.001L692.392 249.925C693.184 249.103 694.452 248.976 695.388 249.631L715.327 263.505C717.188 264.8 716.27 267.719 714.002 267.719H693.751C693.085 267.719 692.451 268.006 692.01 268.503L672.641 290.483C671.944 291.274 670.795 291.495 669.852 291.019L600.121 255.718C599.458 255.382 598.68 255.385 598.018 255.721L462.22 324.899C461.527 325.252 460.7 325.235 460.023 324.85L411.402 297.291C410.624 296.85 409.663 296.895 408.927 297.406L323.118 357.319C322.095 358.033 320.693 357.813 319.94 356.819L256.891 273.477C256.138 272.479 254.729 272.262 253.706 272.98L180.908 324.16C179.878 324.885 178.455 324.654 177.709 323.642L141.751 274.95C140.041 272.633 143.255 269.9 145.273 271.954Z" fill="#74DEC9"/>
<path d="M497.372 253.365C473.081 213.647 421.154 201.117 381.388 225.379C356.041 240.842 341.754 267.519 341.019 295.117V295.131C341.408 309.355 345.413 323.67 353.371 336.683C377.659 376.397 429.589 388.927 469.352 364.665C494.695 349.202 508.982 322.536 509.721 294.942V294.928C509.336 280.704 505.33 266.382 497.372 253.365ZM461.38 356.171C428.822 376.033 386.308 365.775 366.421 333.26C359.132 321.342 355.894 308.088 356.322 295.099V295.096C355.526 271.061 367.35 247.307 389.36 233.877C421.918 214.011 464.432 224.27 484.319 256.788C491.604 268.699 494.842 281.95 494.418 294.928V294.945C495.217 318.98 483.394 342.741 461.38 356.171Z" fill="white"/>
<path d="M469.352 369.205C429.589 393.467 377.659 380.937 353.371 341.222C344.565 326.823 340.598 310.828 341.018 295.131C341.407 309.355 345.413 323.67 353.371 336.683C377.659 376.397 429.589 388.927 469.352 364.665C494.695 349.202 508.982 322.536 509.721 294.942C510.51 324.118 496.083 352.898 469.352 369.205Z" fill="#74DEC9"/>
<path d="M494.418 294.928C494.033 283.423 490.76 271.852 484.319 261.328C464.432 228.809 421.918 218.551 389.36 238.417C368.741 250.999 357.058 272.647 356.322 295.096C355.526 271.061 367.35 247.307 389.36 233.877C421.918 214.011 464.432 224.27 484.319 256.788C491.604 268.699 494.842 281.95 494.418 294.928Z" fill="#74DEC9"/>
<path d="M494.418 294.945C493.686 317.394 482.006 339.049 461.38 351.631C428.822 371.494 386.308 361.235 366.421 328.72C359.98 318.189 356.704 306.611 356.322 295.099L341.019 295.117V295.131C341.408 309.355 345.413 323.67 353.371 336.683C377.659 376.397 429.589 388.927 469.352 364.665C494.695 349.202 508.982 322.536 509.721 294.942V294.928L494.418 294.945Z" fill="white"/>
<path opacity="0.5" d="M461.38 356.171C428.822 376.033 386.308 365.774 366.421 333.259C358.705 320.642 355.53 306.526 356.434 292.817C357.145 303.576 360.404 314.335 366.421 324.177C386.308 356.692 428.822 366.95 461.38 347.088C481.305 334.932 492.88 314.314 494.306 292.688C495.946 317.481 484.081 342.321 461.38 356.171Z" fill="#74DEC9"/>
<path opacity="0.6" d="M494.306 292.688C492.879 314.314 481.305 334.933 461.38 347.088C428.821 366.951 386.308 356.692 366.421 324.177C360.404 314.335 357.145 303.576 356.434 292.817C357.86 271.191 369.438 250.572 389.36 238.417C421.918 218.551 464.432 228.809 484.319 261.328C490.339 271.17 493.594 281.929 494.306 292.688Z" fill="#DEE7EA"/>
<path d="M329.136 350.596L333.947 358.464L363.243 340.591L358.431 332.723L329.136 350.596Z" fill="white"/>
<path d="M343.264 368.707L206.111 452.385C198.173 457.229 187.804 454.727 182.958 446.799L181.525 444.458C180.123 442.162 179.334 439.659 179.117 437.15C179.17 437.244 179.226 437.335 179.282 437.426L180.712 439.764C185.562 447.695 195.927 450.194 203.864 445.35L339.522 362.586L343.264 368.707Z" fill="#454545"/>
<path d="M339.522 362.586L203.865 445.351C195.928 450.195 185.562 447.696 180.712 439.765L179.282 437.427C179.226 437.336 179.17 437.245 179.118 437.15C178.585 430.994 181.479 424.774 187.121 421.334L324.272 337.656L339.522 362.586Z" fill="#B1B0B0"/>
<path d="M339.522 362.586L203.865 445.351C195.928 450.195 185.562 447.696 180.712 439.765L179.282 437.427C179.226 437.336 179.17 437.245 179.118 437.15C178.585 430.994 181.479 424.774 187.121 421.334L324.272 337.656L339.522 362.586Z" fill="#B1B0B0"/>
<path d="M392.363 255.941C378.448 267.512 378.448 288.208 378.448 288.208C388.025 270.949 402.231 256.697 419.465 247.055L419.889 246.817C419.889 246.817 405.007 245.431 392.363 255.941Z" fill="white"/>
<path d="M388.432 453.544H301.389V522.711H388.432V453.544Z" fill="#74DEC9"/>
<path d="M635.759 199.22V531.416H539.998V522.711C588.07 522.711 627.041 483.788 627.041 435.775V199.22H635.759Z" fill="#05374A"/>
<path d="M283.997 525.259H188.236V531.416H283.997V525.259Z" fill="#74DEC9"/>
<path d="M397.147 453.544V531.415H301.389V522.711H319.18C357.426 522.711 388.432 491.743 388.432 453.544H397.147Z" fill="#1CAAB8"/>
<path d="M507.888 350.76H420.846V522.711H507.888V350.76Z" fill="#1CAAB8"/>
<path d="M516.607 350.76V531.416H420.846V522.711C468.917 522.711 507.888 483.788 507.888 435.775V350.76H516.607Z" fill="#10587C"/>
<path d="M627.041 199.22V435.775C627.041 483.788 588.07 522.711 539.998 522.711V199.22H627.041Z" fill="#10587C"/>
<path d="M676.861 198.482C676.861 201.149 676.143 203.651 674.892 205.804C672.361 210.158 667.641 213.084 662.238 213.084C654.16 213.084 647.614 206.546 647.614 198.482C647.614 190.418 654.16 183.88 662.238 183.88C667.641 183.88 672.361 186.806 674.892 191.16C676.146 193.312 676.861 195.815 676.861 198.482Z" fill="#74DEC9"/>
<path d="M703.571 313.359C703.571 314.497 703.266 315.561 702.733 316.478C701.657 318.333 699.646 319.579 697.347 319.579C693.91 319.579 691.12 316.796 691.12 313.363C691.12 309.929 693.906 307.146 697.347 307.146C699.65 307.146 701.657 308.392 702.733 310.247C703.266 311.157 703.571 312.225 703.571 313.359Z" stroke="#74DEC9" stroke-width="3" stroke-miterlimit="10"/>
<path d="M468.644 197.694C468.644 198.832 468.339 199.896 467.806 200.813C466.731 202.668 464.719 203.914 462.42 203.914C458.983 203.914 456.193 201.131 456.193 197.698C456.193 194.264 458.979 191.482 462.42 191.482C464.723 191.482 466.731 192.728 467.806 194.583C468.339 195.493 468.644 196.56 468.644 197.694Z" fill="#74DEC9"/>
<path d="M220.521 351.519C220.521 352.657 220.216 353.721 219.683 354.638C218.607 356.493 216.596 357.739 214.297 357.739C210.859 357.739 208.07 354.956 208.07 351.523C208.07 348.089 210.856 345.307 214.297 345.307C216.599 345.307 218.607 346.553 219.683 348.408C220.216 349.318 220.521 350.385 220.521 351.519Z" fill="#74DEC9"/>
<path d="M194.267 234.861C194.267 236.793 193.748 238.609 192.84 240.167C191.008 243.324 187.587 245.445 183.67 245.445C177.818 245.445 173.073 240.706 173.073 234.861C173.073 229.016 177.818 224.277 183.67 224.277C187.587 224.277 191.008 226.398 192.84 229.555C193.748 231.112 194.267 232.925 194.267 234.861Z" stroke="#74DEC9" stroke-width="3" stroke-miterlimit="10"/>
<path d="M566.61 62.6855C566.61 62.6855 564.784 78.4391 553.094 80.0211V74.7501L566.61 62.6855Z" fill="#D7A99D"/>
<path d="M571.176 79.3106C571.176 79.3106 565.17 92.5021 553.097 83.9026C553.097 83.8991 553.094 83.8991 553.094 83.8991V80.0211C564.784 78.4391 566.61 62.6855 566.61 62.6855L570.78 77.8756H570.783L571.176 79.3106Z" fill="#EEBDAF"/>
<path d="M575.784 47.4746C575.784 51.7761 570.903 50.9151 570.903 50.9151C568.317 61.8176 562.86 68.9891 562.86 68.9891C557.976 74.1516 553.094 76.7451 546.776 72.7306C542.536 70.0356 536.105 55.3636 532.703 47.0021C531.294 43.5406 530.404 41.1606 530.404 41.1606C551.083 45.4656 562.286 29.9746 562.286 29.9746C562.286 36.8591 568.891 43.4566 568.891 43.4566C569.61 42.6691 570.398 42.2561 571.18 42.1511C573.521 41.8256 575.784 44.2476 575.784 47.4746Z" fill="#EEBDAF"/>
<path d="M571.179 42.1508C570.398 42.2558 569.609 42.6688 568.891 43.4563C568.891 43.4563 562.285 36.8588 562.285 29.9743C562.285 29.9743 551.082 45.4653 530.404 41.1603C530.404 41.1603 531.294 43.5403 532.702 47.0018C530.179 43.5648 522.477 32.3998 524.646 27.0973C527.232 20.7868 559.114 13.3283 565.432 14.7633C571.323 16.1003 571.221 39.0463 571.179 42.1508Z" fill="#232323"/>
<path d="M535.808 54.3203C535.808 54.3203 533.596 55.9968 533.933 57.9463C534.269 59.8958 535.825 62.6503 539.522 62.1813" fill="#D7A99D"/>
<path d="M551.562 42.4202C551.562 42.4202 553.094 37.7792 558.897 39.2597" stroke="#232323" stroke-miterlimit="10"/>
<path d="M537.297 48.0306C537.297 48.0306 538.828 43.3896 544.631 44.8701" stroke="#232323" stroke-miterlimit="10"/>
<path d="M546.919 45.9136L549.982 57.8031C550.213 58.7061 551.177 59.2066 552.05 58.8776L553.648 58.2756" stroke="#232323" stroke-miterlimit="10"/>
<path d="M543.335 53.3362C544.106 53.0666 544.343 51.7403 543.864 50.3739C543.384 49.0074 542.371 48.1182 541.6 48.3878C540.829 48.6574 540.593 49.9837 541.072 51.3502C541.551 52.7166 542.564 53.6058 543.335 53.3362Z" fill="#232323"/>
<path d="M556.538 48.3948C557.309 48.1252 557.546 46.7989 557.067 45.4324C556.588 44.066 555.574 43.1768 554.803 43.4464C554.033 43.716 553.796 45.0423 554.275 46.4087C554.754 47.7752 555.768 48.6644 556.538 48.3948Z" fill="#232323"/>
<path d="M559.233 63.9944C559.233 63.9944 562.195 62.3144 563.81 57.2744" stroke="#232323" stroke-miterlimit="10"/>
<path d="M537.819 88.8931C537.686 93.7161 534.942 114.664 534.942 114.664L517.62 121.744C515.514 115.395 513.892 108.444 512.756 102.809C525.298 95.4871 535.149 89.8906 537.297 89.0856C537.469 89.0226 537.644 88.9561 537.819 88.8931Z" fill="#B1B0B0"/>
<path d="M536.522 169.442L539.522 117.176L537.819 88.893C544.628 86.3765 553.094 83.902 553.094 83.902H553.098C565.17 92.5015 571.176 79.31 571.176 79.31L570.784 77.875H592.146L591.855 92.505L606.881 165.714L536.522 169.442Z" fill="#B1B0B0"/>
<path d="M615.333 107.205C613.949 108.066 612.551 108.815 611.167 109.463C604.572 112.567 598.299 113.449 595.366 113.701L591.858 92.505L592.093 80.619L592.145 77.875C592.145 77.875 606.793 77.875 612.249 94.514C613.395 98.014 614.426 102.431 615.333 107.205Z" fill="#454545"/>
<path d="M611.534 109.291C611.471 109.33 611.23 109.428 611.167 109.463C604.571 112.567 598.299 113.449 595.366 113.701L591.858 92.5051L592.093 80.6191C596.83 81.8301 604.613 85.5086 608.268 96.6597C609.414 100.16 610.627 104.517 611.534 109.291Z" fill="#B1B0B0"/>
<path d="M537.297 169.446C537.297 169.446 502.818 173.46 495.063 179.774C487.309 186.085 517.754 288.211 517.754 288.211H532.689L529.241 199.854C529.241 199.854 601.783 208.747 606.951 165.715L537.297 169.446Z" fill="#05374A"/>
<path d="M582.404 199.192C574.004 200.459 566.866 199.854 566.866 199.854L566.922 201.296L570.314 288.208H555.379C555.379 288.208 524.933 186.081 532.688 179.771C535.587 177.415 542.206 175.378 549.369 173.751C561.385 171.021 574.922 169.446 574.922 169.446L606.955 165.715C613.238 189.749 596.417 197.075 582.404 199.192Z" fill="#232323"/>
<path d="M582.404 199.192C594.711 195.86 606.618 186.109 601.267 165.645L568.534 170.772C568.534 170.772 559.331 171.843 549.369 173.751C542.206 175.378 535.587 177.415 532.688 179.771C524.934 186.081 555.379 288.208 555.379 288.208H563.873L566.922 201.296C566.922 201.296 563.049 201.397 566.922 201.296L582.404 199.192Z" fill="#05374A"/>
<path d="M592.146 77.875L595.366 113.701L598.029 129.766L606.885 165.714L592.149 166.495L592.17 166.47C596.712 161.066 598.601 153.923 597.339 146.982C594.252 130.035 589.188 97.1915 592.146 77.875Z" fill="#454545"/>
<path d="M615.68 148.303L549.06 171.109L541.593 175.473L538.407 187.748C538.407 187.748 535.176 190.058 533.091 186.278C532.499 185.214 532.002 183.667 531.69 181.448C530.274 171.357 536.14 169.11 536.14 169.11L546.919 162.502L598.176 130.659L595.383 113.8L595.366 113.702C598.355 113.446 604.806 112.533 611.534 109.292C612.796 108.683 614.072 107.99 615.333 107.206C617.681 119.554 619.212 134.31 619.885 141.835C620.141 144.701 618.406 147.368 615.68 148.303Z" fill="#D7A99D"/>
<path d="M611.167 146.416L544.547 169.222L537.079 173.586L533.894 185.861C533.894 185.861 533.582 186.085 533.091 186.277C532.499 185.213 532.002 183.666 531.69 181.447C530.274 171.357 536.14 169.11 536.14 169.11L546.919 162.502L598.176 130.659L595.383 113.8L595.366 113.701C598.355 113.446 604.806 112.533 611.534 109.292C613.479 120.695 614.769 133.217 615.372 139.948C615.627 142.814 613.893 145.481 611.167 146.416Z" fill="#EEBDAF"/>
<path d="M435.613 158.459L432.61 160.503C429.579 162.568 425.451 161.872 423.264 158.928C423.264 158.928 430.416 161.046 435.613 158.459Z" fill="#D7A99D"/>
<path d="M517.62 121.745L447.384 150.452L437.684 157.049L435.613 158.46C430.416 161.046 423.264 158.929 423.264 158.929C422.15 157.431 421.375 156.066 421.824 155.618C422.448 154.991 425.636 152.317 428.408 150.021C430.641 148.159 432.61 146.542 432.729 146.441L428.759 147.606C428.64 147.641 428.52 147.659 428.398 147.659C427.977 147.659 427.571 147.449 427.329 147.085C426.972 146.549 427.066 145.832 427.553 145.408L430.875 142.507C431.145 142.269 431.503 142.157 431.864 142.195L444.227 143.567C444.542 143.378 485.167 118.917 512.756 102.81C513.892 108.445 515.514 115.396 517.62 121.745Z" fill="#EEBDAF"/>
<path d="M447.384 150.455V150.451L518.657 124.712L447.384 150.455Z" fill="#EEBDAF"/>
<path d="M517.753 288.208L511.723 305.995L505.247 315.567C502.825 319.144 503.586 323.981 506.985 326.648L524.257 309.866L533.898 299.107L532.689 288.204H517.753V288.208Z" fill="#232323"/>
<path d="M555.561 288.208L549.53 305.995L543.054 315.567C540.633 319.144 541.393 323.981 544.792 326.648L562.065 309.866L571.705 299.107L570.496 288.204H555.561V288.208Z" fill="#232323"/>
<path d="M570.321 45.9133C570.321 45.9133 572.567 43.4563 573.359 45.9133" stroke="#232323" stroke-miterlimit="10"/>
<path d="M440.144 155.379C440.144 155.379 433.395 148.169 428.405 150.021C428.405 150.021 435.343 153.447 437.688 157.052L440.144 155.379Z" fill="#D7A99D"/>
<path d="M539.522 117.177L518.657 124.712C518.3 123.743 517.953 122.752 517.62 121.744L534.942 114.664C534.942 114.664 537.686 93.7161 537.819 88.8931L539.522 117.177Z" fill="#454545"/>
<path d="M518.657 124.712L447.384 150.451L517.62 121.744C517.953 122.752 518.3 123.743 518.657 124.712Z" fill="#D7A99D"/>
<path d="M567.318 17.511C567.318 17.511 557.422 10.308 535.548 18.9775C534.521 19.3835 523.335 22.8205 522.344 25.3825" stroke="#232323" stroke-width="2" stroke-miterlimit="10"/>
<path d="M594.291 107.206L614.436 102.81" stroke="#232323" stroke-miterlimit="10"/>
<path d="M517.62 99.9775L524.264 122.185" stroke="#232323" stroke-miterlimit="10"/>
<path d="M326.465 188.444C320.62 198.541 312.354 202.664 312.354 202.664C312.354 202.664 263.564 238.809 234.268 230.633C219.249 226.44 213.176 216.37 214.886 205.982C216.238 213.798 222.515 220.679 234.268 223.958C263.564 232.134 312.354 195.99 312.354 195.99C312.354 195.99 320.62 191.867 326.465 181.769C330.713 174.423 333.656 164.616 334.234 155.11C334.981 166.499 331.722 179.358 326.465 188.444Z" fill="#05374A"/>
<path d="M334.234 155.11C333.656 164.616 330.712 174.423 326.465 181.77C320.62 191.867 312.354 195.99 312.354 195.99C312.354 195.99 263.564 232.135 234.268 223.959C222.515 220.679 216.238 213.798 214.886 205.983C216.512 196.109 225.171 185.952 239.868 180.289C270.025 168.669 275.625 156.248 280.798 149.335C285.966 142.423 295.67 117.37 322.379 132.43C330.061 136.763 333.6 145.405 334.234 155.11Z" fill="#10587C"/>
<path d="M334.234 155.11C333.656 164.616 330.712 174.423 326.465 181.77C320.62 191.867 312.354 195.99 312.354 195.99C312.354 195.99 263.564 232.135 234.268 223.959C222.515 220.679 216.238 213.798 214.886 205.983C216.512 196.109 225.171 185.952 239.868 180.289C270.025 168.669 275.625 156.248 280.798 149.335C285.966 142.423 295.67 117.37 322.379 132.43C330.061 136.763 333.6 145.405 334.234 155.11Z" fill="#10587C"/>
<path d="M437.688 157.053C437.053 157.63 436.352 158.092 435.613 158.46C430.416 161.046 423.264 158.929 423.264 158.929L420.173 159.769L423.783 163.815C423.972 164.028 424.07 164.301 424.07 164.574C424.07 164.749 424.028 164.928 423.944 165.096C423.66 165.649 422.991 165.873 422.43 165.6L413.925 161.473C413.925 161.473 413.925 161.473 413.921 161.477L343.861 213.854C341.723 211.733 338.769 209.241 335.654 206.774C334.276 205.678 332.868 204.593 331.487 203.543C329.98 196.431 334.22 191.479 334.22 191.479C369.978 175.127 409.184 152.632 409.184 152.632L420.184 149.808C422.938 149.101 425.783 149.199 428.408 150.021C430.819 150.774 433.044 152.139 434.842 154.039L437.684 157.049L437.688 157.053Z" fill="#EEBDAF"/>
<path d="M331.487 203.543C326.147 199.501 321.188 196.043 319.898 195.147C322.316 196.081 334.22 191.479 334.22 191.479C334.22 191.479 329.98 196.431 331.487 203.543Z" fill="#10587C"/>
<path d="M319.898 195.146C319.713 195.013 319.604 194.936 319.576 194.922" stroke="#232323" stroke-miterlimit="10"/>
<path d="M289.733 238.165C285.29 246.439 226.513 308.949 226.513 308.949L221.344 314.115L216.375 322.886C216.004 323.544 215.229 323.862 214.504 323.656C213.775 323.45 213.312 322.788 213.312 322.081C213.312 321.871 213.354 321.658 213.442 321.448L216.172 314.973L197.645 329.176C197.645 329.176 189.459 318.413 211.865 306.797C228.44 298.201 254.221 252.379 266.504 229.135C268.687 225.002 271.522 221.292 274.865 218.124C276.34 218.18 281.681 218.954 285.921 226.962C287.396 229.737 288.735 233.381 289.733 238.165Z" fill="#EEBDAF"/>
<path d="M341.975 232.785L336.372 283.99C336.218 283.973 332.04 283.535 318.752 280.543C305.208 277.491 293.521 235.449 293.521 235.449C287.943 215.551 274.865 218.124 274.865 218.124C278.674 214.515 283.145 211.617 288.072 209.605L331.487 203.546C331.487 203.543 331.487 203.543 331.487 203.543C335.997 206.962 340.78 210.795 343.86 213.854C345.728 215.709 346.969 217.28 347.144 218.299C348.006 223.318 341.975 232.785 341.975 232.785Z" fill="#1CAAB8"/>
<path d="M302.131 237.629C302.131 237.629 319.898 250.992 327.895 231.837L337.339 233.048L335.289 236.121C327.579 247.674 310.861 248.434 302.131 237.629Z" fill="#10587C"/>
<path d="M331.487 203.543C331.487 203.543 331.487 203.543 331.487 203.546L288.072 209.605C295.126 206.724 301.907 203.952 301.907 203.952L303.319 188.461C303.75 183.712 302.895 178.934 300.838 174.629C300.684 174.304 300.526 173.971 300.372 173.635C298.508 173.198 291.244 173.884 291.086 168.672C291.009 166.107 295.694 165.767 297.054 165.725C294.902 160.213 293.29 155.404 293.29 155.404C298.946 152.775 302.198 144.589 309.294 140.889C315.753 137.522 322.249 139.433 324.464 146.363C328.049 157.56 332.524 172.851 331.161 175.476C330.131 177.461 325.039 179.879 319.478 181.304C319.204 184.377 318.5 193.494 319.572 194.922L319.576 194.926C319.649 195.02 319.758 195.09 319.898 195.15C321.188 196.042 326.146 199.5 331.487 203.543Z" fill="#EEBDAF"/>
<path d="M336.372 283.994L254.084 489.248H246.042C246.042 489.248 260.402 442.775 263.272 424.988C266.146 407.201 271.704 392.861 271.704 392.861L280.503 329.179C280.503 329.179 278.208 315.98 278.208 308.525C278.208 301.063 302.335 279.549 302.335 279.549C310.955 288.435 336.372 283.994 336.372 283.994Z" fill="#232323"/>
<path d="M336.375 283.99L387.93 332.042L362.153 417.529H353.466C353.466 417.529 353.609 343.518 362.153 339.5L322.744 317.986L336.375 283.99Z" fill="#232323"/>
<path d="M246.042 489.248L238.575 497.854C238.575 497.854 244.893 508.757 246.042 519.082C247.192 529.41 267.296 523.67 267.296 523.67L256.38 516.212L254.081 489.244H246.042V489.248Z" fill="#10587C"/>
<path d="M353.939 417.529L346.471 426.136C346.471 426.136 352.789 437.038 353.939 447.363C355.088 457.692 375.192 451.952 375.192 451.952L364.276 444.493L361.978 417.526H353.939V417.529Z" fill="#10587C"/>
<path d="M322.492 148.974C322.492 148.974 317.961 147.133 315.329 152.506" stroke="#232323" stroke-miterlimit="10"/>
<path d="M314.638 154.921L321.717 164.955C322.253 165.715 322.011 166.775 321.195 167.223L319.702 168.049" stroke="#232323" stroke-miterlimit="10"/>
<path d="M322.61 156.999C323.315 156.587 323.294 155.24 322.563 153.99C321.831 152.74 320.667 152.061 319.962 152.472C319.257 152.884 319.278 154.231 320.009 155.481C320.741 156.731 321.905 157.41 322.61 156.999Z" fill="#232323"/>
<path d="M309.294 154.021C309.294 154.021 304.763 152.18 302.131 157.553" stroke="#232323" stroke-miterlimit="10"/>
<path d="M309.413 162.047C310.118 161.635 310.097 160.288 309.366 159.038C308.634 157.788 307.47 157.108 306.765 157.52C306.059 157.932 306.081 159.278 306.812 160.529C307.543 161.779 308.708 162.458 309.413 162.047Z" fill="#232323"/>
<path d="M317.869 174.153C317.869 174.153 314.67 175.315 309.778 173.278" stroke="#232323" stroke-miterlimit="10"/>
<path d="M336.372 283.991V283.994C336.372 283.994 310.955 288.436 302.338 279.546C302.338 279.546 296.307 246.124 289.842 237.948C289.81 238.015 289.775 238.088 289.733 238.165C285.847 219.577 276.852 218.201 274.865 218.124C274.865 218.124 287.943 215.552 293.521 235.449C293.521 235.449 305.208 277.491 318.752 280.543C332.04 283.536 336.218 283.973 336.372 283.991Z" fill="#10587C"/>
<path d="M336.375 283.99C336.375 283.99 336.375 283.99 336.372 283.994V283.99C336.375 283.99 336.375 283.99 336.375 283.99Z" stroke="#232323" stroke-miterlimit="10"/>
<path d="M298.035 168.501C298.035 168.501 294.931 167.804 293.806 168.967" stroke="#232323" stroke-miterlimit="10"/>
<path d="M399.172 172.505L343.861 213.854C341.723 211.733 338.769 209.241 335.654 206.773C352.439 200.127 364.736 197.936 399.172 172.505Z" fill="#D7A99D"/>
<path d="M289.734 238.165C285.29 246.439 226.513 308.949 226.513 308.949L221.344 314.115C274.904 251.965 285.921 226.961 285.921 226.961C287.396 229.737 288.735 233.38 289.734 238.165Z" fill="#D7A99D"/>
<path d="M309.781 179.281C309.781 179.281 312.35 181.185 319.477 181.301L319.148 185.795C319.148 185.795 313.24 186.393 309.781 179.281Z" fill="#D7A99D"/>
<path d="M322.379 132.43C322.379 132.43 297.023 114.503 280.475 143.315C276.656 149.965 271.785 155.953 265.891 160.86C258.938 166.649 248.685 173.537 234.513 179.281C203.511 191.846 210.036 218.124 210.036 218.124" stroke="#10587C" stroke-width="2" stroke-miterlimit="10"/>
<path d="M274.865 218.124C274.865 218.124 295.095 212.17 319.478 213.01H331.164L331.487 203.543" stroke="#10587C" stroke-width="3" stroke-miterlimit="10"/>
<path d="M291.208 214.74C291.208 214.74 312.599 253.702 316.53 285.104" stroke="#10587C" stroke-width="3" stroke-miterlimit="10"/>
<path d="M681.28 426.171C681.28 434.476 679.048 442.267 675.151 448.966C667.273 462.522 652.583 471.636 635.759 471.636C610.616 471.636 590.235 451.28 590.235 426.171C590.235 401.062 610.616 380.706 635.759 380.706C652.583 380.706 667.273 389.82 675.151 403.375C679.048 410.074 681.28 417.865 681.28 426.171Z" stroke="#74DEC9" stroke-width="3" stroke-miterlimit="10"/>
<path d="M687.728 448.227C683.705 455.497 677.979 461.237 671.325 465.22L647.766 426.17L693.405 425.316C693.566 433.062 691.748 440.958 687.728 448.227Z" fill="white"/>
<path d="M687.805 404.257L647.762 426.17L693.405 425.558C693.328 418.32 691.513 411.005 687.805 404.257Z" fill="#1CAAB8"/>
<path d="M99.2837 525.48C99.2837 525.48 155.951 510.899 168.43 417.53C168.43 417.53 90.8805 447.822 99.2837 525.48Z" fill="#1CAAB8"/>
<path d="M99.2836 525.48C99.2836 525.48 66.0316 479.879 77.5992 404.258C83.9735 362.587 88.07 350.764 88.07 350.764C88.07 350.764 115.123 427.697 99.2836 525.48Z" fill="#74DEC9"/>
<path d="M99.2834 525.48C99.2834 525.48 38.5298 507.406 28.3184 447.822C28.3184 447.822 77.4097 461.119 99.2834 525.48Z" fill="#1CAAB8"/>
<path d="M700.217 527.367C700.217 527.367 737.78 541.787 781.113 495.289C781.11 495.289 725.69 481.251 700.217 527.367Z" fill="#74DEC9"/>
<path d="M700.217 527.367C700.217 527.367 699.24 489.066 735.159 451.984C754.951 431.551 761.858 426.658 761.858 426.658C761.858 426.658 747.157 479.767 700.217 527.367Z" fill="#1CAAB8"/>
<path d="M700.217 527.367C700.217 527.367 673.056 493.333 690.482 456.46C690.482 456.46 712.938 483.239 700.217 527.367Z" fill="#74DEC9"/>
</svg>
